<svg width="11" height="14" viewBox="0 0 11 14" fill="none" xmlns="http://www.w3.org/2000/svg">
<path d="M6.68525 0H1.83333C1.3471 0 0.880787 0.184374 0.536971 0.512563C0.193154 0.840752 0 1.28587 0 1.75V12.25C0 12.7141 0.193154 13.1592 0.536971 13.4874C0.880787 13.8156 1.3471 14 1.83333 14H9.16667C9.6529 14 10.1192 13.8156 10.463 13.4874C10.8068 13.1592 11 12.7141 11 12.25V4.11862C10.9999 3.88658 10.9033 3.66406 10.7314 3.5L7.33333 0.256375C7.16147 0.0922693 6.92835 4.95577e-05 6.68525 0V0ZM6.875 3.0625V1.3125L9.625 3.9375H7.79167C7.54855 3.9375 7.31539 3.84531 7.14349 3.68122C6.97158 3.51712 6.875 3.29456 6.875 3.0625ZM5.95833 6.5625V9.88138L7.00883 8.87775C7.0949 8.7956 7.21162 8.74945 7.33333 8.74945C7.45504 8.74945 7.57177 8.7956 7.65783 8.87775C7.7439 8.9599 7.79225 9.07132 7.79225 9.1875C7.79225 9.30368 7.7439 9.4151 7.65783 9.49725L5.8245 11.2472C5.78193 11.288 5.73135 11.3203 5.67566 11.3424C5.61998 11.3644 5.56029 11.3758 5.5 11.3758C5.43971 11.3758 5.38002 11.3644 5.32434 11.3424C5.26865 11.3203 5.21808 11.288 5.1755 11.2472L3.34217 9.49725C3.2561 9.4151 3.20775 9.30368 3.20775 9.1875C3.20775 9.07132 3.2561 8.9599 3.34217 8.87775C3.42823 8.7956 3.54496 8.74945 3.66667 8.74945C3.78838 8.74945 3.9051 8.7956 3.99117 8.87775L5.04167 9.88138V6.5625C5.04167 6.44647 5.08996 6.33519 5.17591 6.25314C5.26186 6.17109 5.37844 6.125 5.5 6.125C5.62156 6.125 5.73814 6.17109 5.82409 6.25314C5.91005 6.33519 5.95833 6.44647 5.95833 6.5625Z" fill="#818492"/>
</svg>
